HIERARCHY
ROOT Pelvis
{
	OFFSET 0.000000 0.000000 0.000000
	CHANNELS 6 Xposition Yposition Zposition Xrotation Yrotation Zrotation
	JOINT LeftUpLeg_virtual
	{
		OFFSET 0.000000 0.000000 0.000000
		CHANNELS 3 Xrotation Yrotation Zrotation
		JOINT LeftUpLeg
		{
			OFFSET 18.735201 -5.666702 -4.541200
			CHANNELS 3 Xrotation Yrotation Zrotation
			JOINT LeftLeg
			{
				OFFSET -0.021200 -31.938179 0.493100
				CHANNELS 3 Xrotation Yrotation Zrotation
				JOINT LeftFoot
				{
					OFFSET 0.021200 -31.938179 -4.336299
					CHANNELS 3 Xrotation Yrotation Zrotation
					JOINT LeftToeBase
					{
						OFFSET 0.943001 -26.722000 15.023500
						CHANNELS 3 Xrotation Yrotation Zrotation
						End Site
						{
							OFFSET 0 0 0
						}
					}
				}
			}
		}
	}
	JOINT RightUpLeg_virtual
	{
		OFFSET 0.000000 0.000000 0.000000
		CHANNELS 3 Xrotation Yrotation Zrotation
		JOINT RightUpLeg
		{
			OFFSET -18.735201 -5.666702 -4.541200
			CHANNELS 3 Xrotation Yrotation Zrotation
			JOINT RightLeg
			{
				OFFSET 0.018946 -31.938133 0.493100
				CHANNELS 3 Xrotation Yrotation Zrotation
				JOINT RightFoot
				{
					OFFSET -0.018946 -31.938126 -4.336299
					CHANNELS 3 Xrotation Yrotation Zrotation
					JOINT RightToeBase
					{
						OFFSET -0.943001 -26.722004 15.023500
						CHANNELS 3 Xrotation Yrotation Zrotation
						End Site
						{
							OFFSET 0 0 0
						}
					}
				}
			}
		}
	}
	JOINT Hips_virtual
	{
		OFFSET 0.000000 0.000000 0.000000
		CHANNELS 3 Xrotation Yrotation Zrotation
		JOINT Hips
		{
			OFFSET -0.000000 -0.000000 -0.000000
			CHANNELS 3 Xrotation Yrotation Zrotation
			JOINT Spine
			{
				OFFSET 0.000000 10.199997 -0.299500
				CHANNELS 3 Xrotation Yrotation Zrotation
				JOINT Spine1
				{
					OFFSET 0.000000 11.900002 -1.516600
					CHANNELS 3 Xrotation Yrotation Zrotation
					JOINT Spine2
					{
						OFFSET 0.000000 13.600006 -2.842500
						CHANNELS 3 Xrotation Yrotation Zrotation
						JOINT Neck_virtual
						{
							OFFSET 0.000000 0.000000 0.000000
							CHANNELS 3 Xrotation Yrotation Zrotation
							JOINT Neck
							{
								OFFSET 0.000000 9.624100 -2.890100
								CHANNELS 3 Xrotation Yrotation Zrotation
								JOINT Head
								{
									OFFSET 0.000000 14.068802 -1.351900
									CHANNELS 3 Xrotation Yrotation Zrotation
									End Site
									{
										OFFSET 0 0 0
									}
								}
							}
						}
						JOINT LeftShoulder_virtual
						{
							OFFSET 0.000000 0.000000 0.000000
							CHANNELS 3 Xrotation Yrotation Zrotation
							JOINT LeftShoulder
							{
								OFFSET 15.263000 10.923401 -0.547700
								CHANNELS 3 Xrotation Yrotation Zrotation
								JOINT LeftArm
								{
									OFFSET 25.438599 -2.830597 -13.032500
									CHANNELS 3 Xrotation Yrotation Zrotation
									JOINT LeftForeArm
									{
										OFFSET 29.960503 0.000000 0.000000
										CHANNELS 3 Xrotation Yrotation Zrotation
										JOINT LeftHand
										{
											OFFSET 27.849251 0.000000 0.000000
											CHANNELS 3 Xrotation Yrotation Zrotation
											End Site
											{
												OFFSET 0 0 0
											}
										}
									}
								}
							}
						}
						JOINT RightShoulder_virtual
						{
							OFFSET 0.000000 0.000000 0.000000
							CHANNELS 3 Xrotation Yrotation Zrotation
							JOINT RightShoulder
							{
								OFFSET -15.263000 10.923401 -0.547700
								CHANNELS 3 Xrotation Yrotation Zrotation
								JOINT RightArm
								{
									OFFSET -25.438599 -2.830597 -13.032500
									CHANNELS 3 Xrotation Yrotation Zrotation
									JOINT RightForeArm
									{
										OFFSET -29.960503 0.000000 0.000000
										CHANNELS 3 Xrotation Yrotation Zrotation
										JOINT RightHand
										{
											OFFSET -27.849251 0.000000 0.000000
											CHANNELS 3 Xrotation Yrotation Zrotation
											End Site
											{
												OFFSET 0 0 0
											}
										}
									}
								}
							}
						}
					}
				}
			}
		}
	}
}
MOTION
Frames: 6
Frame Time: 0.03333333
65.995155 91.109604 156.955444 0.000000 0.000000 0.000000 -7.834424 44.646276 11.667232 -25.412532 14.225661 -15.590055 34.446331 -9.111121 -3.102568 25.237679 7.716014 16.464277 0.000000 0.000000 0.000000 -6.577044 45.217720 10.018125 -31.816039 13.167370 2.998970 51.334739 -7.105211 -0.198614 41.521683 -8.616135 -0.007085 0.000000 0.000000 0.000000 -7.282443 44.121806 11.059148 0.784328 -0.354561 -1.424751 4.057964 -1.328146 -5.951521 -1.796489 -0.753660 0.287410 0.000000 0.000000 0.000000 -2.556412 -0.996076 0.631898 -1.222531 0.345926 0.356499 0.000000 0.000000 0.000000 -2.816012 -0.939869 0.469365 1.219342 7.660569 -5.969628 5.020316 -5.563479 -69.472668 12.230595 -24.667839 4.552125 0.000000 0.000000 0.000000 -2.252127 -1.031882 0.793689 0.856676 5.897635 2.565074 1.231584 1.841976 76.774639 11.444662 14.201727 -3.610230 0.000000 0.000000 0.000000 
67.922379 91.902504 158.684418 0.000000 0.000000 0.000000 -7.779026 47.161725 10.946641 -23.354336 12.647000 -15.974308 35.186672 -11.303224 -1.797488 21.826522 8.012613 18.497670 0.000000 0.000000 0.000000 -6.252671 47.936183 9.110858 -36.645693 13.851110 3.423556 49.282875 -7.002025 -0.908783 39.723916 -8.435315 -1.683097 0.000000 0.000000 0.000000 -7.014445 46.304858 10.424774 0.685805 -0.881774 -1.417156 4.273538 -1.695966 -5.415304 -1.764066 -1.109154 0.525005 0.000000 0.000000 0.000000 -2.636691 -1.355928 0.895166 -1.239063 0.314261 0.502460 0.000000 0.000000 0.000000 -2.862314 -1.311518 0.736805 1.119785 6.929905 -5.202389 3.014412 -7.851314 -68.983435 12.074419 -23.496201 4.529638 0.000000 0.000000 0.000000 -2.340533 -1.396002 1.039400 0.843062 5.391027 3.378931 1.926777 0.506556 76.411150 11.335237 14.181942 -3.540470 0.000000 0.000000 0.000000 
70.096733 92.600563 160.503693 0.000000 0.000000 0.000000 -7.602073 50.025036 10.327110 -20.665393 11.498378 -15.689358 35.097217 -14.321083 -1.044911 18.829561 6.738376 19.556141 0.000000 0.000000 0.000000 -5.723147 50.855980 8.138919 -39.709504 13.600814 2.394631 44.375264 -5.158907 -0.974676 41.329379 -5.446427 -0.862524 0.000000 0.000000 0.000000 -6.733858 48.830966 9.775512 0.534445 -1.263585 -1.244640 4.472465 -2.073450 -5.111961 -1.670544 -1.450984 0.744602 0.000000 0.000000 0.000000 -2.594138 -1.702781 1.126067 -1.256502 0.270275 0.683673 0.000000 0.000000 0.000000 -2.820498 -1.678357 0.972079 0.953104 6.122436 -4.353394 0.934864 -10.010286 -68.415225 11.996506 -22.699333 4.536210 0.000000 0.000000 0.000000 -2.316715 -1.745269 1.275044 0.819906 4.752115 4.425445 2.487349 -0.944682 75.841635 11.268263 13.848827 -3.508488 0.000000 0.000000 0.000000 
72.430649 93.099098 162.418274 0.000000 0.000000 0.000000 -7.381433 53.076601 9.992394 -17.923243 11.433212 -14.642416 34.221713 -17.572946 -1.305462 17.708961 4.596380 19.708673 0.000000 0.000000 0.000000 -5.157147 53.798504 7.365820 -41.199127 11.880196 0.182728 38.048928 -2.891401 -0.035429 44.126652 -2.051467 0.626587 0.000000 0.000000 0.000000 -6.302873 51.459000 9.209807 0.287775 -1.137752 -1.100399 4.694702 -2.482158 -5.279061 -1.527856 -1.770868 0.951844 0.000000 0.000000 0.000000 -2.442606 -2.028416 1.317604 -1.293699 0.211654 0.879812 0.000000 0.000000 0.000000 -2.698593 -2.024088 1.185317 0.755912 5.185893 -3.524351 -0.921444 -11.663660 -67.791212 12.108845 -22.995090 4.676405 0.000000 0.000000 0.000000 -2.175540 -2.070279 1.507629 0.789553 3.967383 5.656513 2.832237 -2.213991 75.103018 11.272414 13.264675 -3.565648 0.000000 0.000000 0.000000 
74.860481 93.328621 164.401550 0.000000 0.000000 0.000000 -6.961999 55.771138 9.790654 -15.777559 12.148599 -13.053149 33.817940 -20.469242 -2.114876 18.415028 2.985556 20.149618 0.000000 0.000000 0.000000 -4.672390 56.518893 7.025249 -40.929936 8.875879 -2.444715 31.187385 -1.572719 1.451394 43.934393 -0.730595 1.345558 0.000000 0.000000 0.000000 -5.740281 54.038097 8.775100 0.103886 -0.901580 -0.889932 4.887734 -2.932879 -5.961749 -1.376715 -2.059901 1.170088 0.000000 0.000000 0.000000 -2.196515 -2.320890 1.500969 -1.356152 0.131848 1.064591 0.000000 0.000000 0.000000 -2.459961 -2.337140 1.411307 0.577429 4.133650 -2.798070 -2.311946 -12.684603 -67.228138 12.426049 -24.516604 4.957263 0.000000 0.000000 0.000000 -1.931204 -2.352929 1.761987 0.775351 3.097246 6.915039 3.075485 -3.066306 74.245775 11.397834 12.622126 -3.747076 0.000000 0.000000 0.000000 
77.390778 93.231476 166.600983 0.000000 0.000000 0.000000 -6.254210 57.900634 9.641777 -13.638000 12.824146 -11.501796 33.888632 -22.849766 -2.900509 19.175090 1.896593 21.133012 0.000000 0.000000 0.000000 -4.168511 58.673388 7.039187 -39.300208 5.474122 -4.875178 24.378451 -1.370041 2.810507 40.008878 -1.355013 1.753755 0.000000 0.000000 0.000000 -5.245318 56.328393 8.647679 0.120537 -0.501433 -0.798033 4.935978 -3.418001 -7.014391 -1.245124 -2.303512 1.435596 0.000000 0.000000 0.000000 -1.900250 -2.563772 1.720204 -1.437918 0.036459 1.218029 0.000000 0.000000 0.000000 -2.144834 -2.594763 1.683398 0.469028 3.043138 -2.261658 -3.263689 -13.129165 -67.002735 12.836103 -26.450423 5.271580 0.000000 0.000000 0.000000 -1.603387 -2.584162 2.053240 0.790418 2.198659 8.130878 3.343452 -3.452319 73.307355 11.654412 12.158555 -4.048812 0.000000 0.000000 0.000000 
